<?xml version="1.0" standalone="no"?>
<!DOCTYPE svg PUBLIC "-//W3C//DTD SVG 20010904//EN"
 "http://www.w3.org/TR/2001/REC-SVG-20010904/DTD/svg10.dtd">
<svg version="1.0" xmlns="http://www.w3.org/2000/svg"
 width="1280.000000pt" height="640.000000pt" viewBox="0 0 1280.000000 640.000000"
 preserveAspectRatio="xMidYMid meet">
<g transform="translate(0.000000,640.000000) scale(0.100000,-0.100000)"
fill="#000000" stroke="none">
<path d="M3140 6328 c-82 -11 -160 -53 -180 -95 -9 -18 -41 -48 -77 -73 -130
-86 -184 -174 -248 -403 -20 -72 -57 -115 -189 -214 -71 -53 -101 -82 -101
-97 0 -13 18 -34 49 -57 69 -53 74 -64 46 -116 -19 -37 -21 -47 -11 -69 9 -22
8 -30 -9 -51 -14 -18 -20 -41 -20 -79 0 -29 -5 -88 -11 -130 l-12 -77 32 -29
c28 -25 39 -28 99 -28 37 0 96 7 132 16 95 23 179 23 214 1 40 -26 66 -93 88
-226 10 -64 28 -144 39 -179 12 -34 18 -70 15 -79 -4 -9 -2 -19 4 -23 7 -4 3
-16 -10 -32 -26 -34 -25 -40 5 -26 22 10 28 8 46 -11 18 -19 20 -27 10 -47
-16 -36 -14 -42 14 -36 20 3 24 1 19 -12 -4 -11 -1 -16 10 -16 21 0 20 -9 -1
-33 -17 -19 -17 -19 7 -12 14 4 31 10 38 12 15 6 16 -19 1 -34 -7 -7 -12 -27
-14 -45 -4 -80 -206 -537 -391 -889 -141 -268 -149 -314 -77 -455 l36 -72 -46
-68 c-25 -38 -99 -123 -164 -189 -79 -80 -142 -155 -188 -225 -40 -60 -183
-328 -333 -625 -145 -286 -281 -550 -303 -586 -72 -124 -181 -199 -288 -199
-43 0 -135 -16 -366 -64 -196 -41 -362 -63 -521 -70 -130 -6 -144 -10 -144
-41 0 -44 45 -50 386 -50 302 0 312 -1 320 -20 8 -17 20 -20 96 -23 72 -2 94
1 127 18 44 22 95 26 136 10 35 -13 28 -30 -21 -55 -35 -18 -65 -21 -284 -25
-241 -5 -246 -5 -300 -32 -75 -37 -149 -53 -385 -82 -276 -35 -378 -51 -399
-63 -16 -9 -13 -15 29 -56 l47 -47 81 0 c77 0 82 -2 103 -27 25 -31 -22 -29
399 -24 99 1 338 1 531 0 l351 -3 94 92 c51 51 107 115 124 144 27 46 169 187
645 642 61 57 113 122 179 221 121 179 161 232 290 383 119 139 171 212 203
289 12 29 26 53 32 53 6 0 25 -23 41 -51 65 -110 256 -269 426 -354 131 -66
232 -137 479 -334 332 -266 445 -335 608 -373 723 -168 1072 -285 1442 -483
159 -85 88 -80 1035 -80 759 0 848 2 925 17 72 15 118 17 285 12 238 -7 319 2
351 41 22 28 -4 23 354 70 203 27 385 35 835 35 444 0 795 -12 922 -30 38 -5
138 -29 223 -54 278 -80 285 -81 650 -81 l325 0 85 29 c75 25 103 29 236 34
146 4 154 3 217 -22 83 -33 194 -37 220 -8 21 23 21 36 3 51 -9 8 -17 43 -21
99 -7 100 -18 128 -57 148 -15 8 -97 21 -183 29 -175 17 -216 25 -330 62 -133
43 -171 66 -310 189 -197 173 -272 211 -395 199 -61 -6 -73 -4 -99 14 -17 12
-55 27 -85 33 -73 16 -116 2 -191 -62 -154 -132 -194 -135 -435 -38 -283 113
-590 205 -908 272 -95 20 -151 26 -250 26 -130 0 -180 -6 -482 -58 -253 -44
-261 -45 -415 -27 -231 26 -435 71 -553 121 -241 103 -432 157 -827 234 -280
54 -336 71 -460 133 -102 51 -159 89 -265 177 -268 224 -503 275 -1030 220
-107 -11 -253 -21 -325 -21 -112 -1 -142 3 -218 25 -105 31 -131 44 -214 102
-53 38 -63 50 -68 82 -12 73 -47 176 -102 299 -52 118 -58 142 -108 402 -44
231 -57 321 -75 549 -19 230 -20 280 -10 318 9 31 17 43 26 40 20 -8 18 24 -6
86 -11 28 -19 52 -17 52 1 1 12 7 24 14 31 16 28 18 53 -32 12 -25 39 -64 60
-88 l39 -43 -20 54 c-15 41 -17 56 -8 67 9 11 4 22 -21 51 -45 51 -90 150 -90
197 0 58 28 106 140 246 231 288 273 504 160 825 -37 103 -37 133 0 95 14 -14
35 -39 47 -55 l23 -30 -7 30 c-3 17 -14 47 -25 68 -16 32 -16 38 -4 43 8 3 24
1 35 -6 16 -8 21 -8 21 1 0 23 -62 88 -118 125 -31 20 -59 39 -62 41 -3 3 3
11 13 18 18 13 18 14 -2 25 -41 21 -172 49 -264 56 -66 5 -99 12 -116 25 -13
11 -32 19 -42 19 -13 0 -30 24 -58 83 -84 171 -211 296 -386 382 -197 96 -420
133 -625 103z m1155 -882 c26 -52 30 -70 30 -141 0 -76 -3 -88 -42 -166 -85
-172 -264 -318 -457 -374 -65 -19 -79 -13 -74 30 3 23 13 30 88 59 101 37 161
77 223 146 74 82 90 136 94 325 2 88 6 165 8 171 2 6 25 10 51 10 l48 -1 31
-59z"/>
</g>
</svg>
